<svg width="34" height="34" viewBox="0 0 34 34" fill="none" xmlns="http://www.w3.org/2000/svg">
<path d="M9.53071 19.0064L14.5629 13.9741L2.08017 1.50916C0.748054 2.84512 0 4.65476 0 6.54138C0 8.428 0.748054 10.2376 2.08017 11.5736L9.53071 19.0064ZM21.5867 15.7879C24.3073 17.0504 28.1304 16.1613 30.9577 13.334C34.354 9.93769 35.0119 5.0655 32.398 2.45159C29.8019 -0.144544 24.9297 0.495598 21.5156 3.89191C18.6883 6.7192 17.7992 10.5423 19.0617 13.2629L1.70676 30.6178L4.21398 33.1251L16.4656 20.909L28.6994 33.1428L31.2066 30.6356L18.9728 18.4018L21.5867 15.7879Z" fill="#EBC060"/>
</svg>
